<?xml version="1.0" encoding="utf-8"?>
<!-- Generator: Adobe Illustrator 24.3.0, SVG Export Plug-In . SVG Version: 6.00 Build 0)  -->
<svg version="1.1" id="Capa_1" xmlns="http://www.w3.org/2000/svg" xmlns:xlink="http://www.w3.org/1999/xlink" x="0px" y="0px"
	 viewBox="0 0 32 32" style="enable-background:new 0 0 32 32;" xml:space="preserve">
<style type="text/css">
	.st0{fill:#000F27;}
	.st1{fill:#FFFFFF;}
	.st2{fill:#D99446;}
	.st3{fill:url(#SVGID_1_);}
	.st4{fill:url(#SVGID_2_);}
</style>
<g>
	<path class="st2" d="M17.8,4.1c0-1.1-0.6-2.1-1.6-2.7c-1-0.6-2.2-0.6-3.1,0c-0.9,0.6-1.4,1.6-1.5,2.7c0,0.8,0.2,1.7,0.7,2.3
		c0.5,0.7,1.2,1.2,2,1.2c0.9,0.1,1.8-0.4,2.4-1c0.4-0.4,0.8-0.9,1-1.4C17.9,4.9,17.9,4.5,17.8,4.1z"/>
	<linearGradient id="SVGID_1_" gradientUnits="userSpaceOnUse" x1="9.5325" y1="19.8066" x2="29.2148" y2="19.8066">
		<stop  offset="0" style="stop-color:#629E94"/>
		<stop  offset="0.85" style="stop-color:#629E94"/>
	</linearGradient>
	<path class="st3" d="M28.7,14.9L28.7,14.9C20,8.3,15.3,8.9,15.3,8.9l0,0c-3,0.1-5.6,2.5-5.7,5.6c-0.1,2,0.8,3.9,2.3,5
		c0.1,0,0.1,0.1,0.2,0.1c0.1,0,0.3-0.1,0.3-0.2l2.6-4c0.1-0.1,0.3-0.2,0.4-0.2c0.2,0,0.4,0.1,0.5,0.3h0l2.7,3.6l0.5,0.7
		c0,0.5-0.3,0.9-1.6,0.9l0,0l0,0c1,8-5.2,10.1-5.2,10.1c0.7,0,3.1,0.1,3.9-0.1c0,0,0.1,0,0.1,0c2.8-0.3,4.9-2.6,5.1-5.4l0,0l0,0
		c0-0.3,0-0.6,0-0.9h0V23v-0.7v-4c0-0.1,0-0.2,0-0.3c0-3,6.6-1.3,6.6-1.3s0.3,0,0.4,0c0.1,0,0.2,0,0.3,0
		C29.4,16.4,29.3,15.4,28.7,14.9z"/>
	<path class="st0" d="M13.3,20.7c-0.1-0.1-0.1-0.2-0.2-0.3c-0.2-0.2-0.5-0.4-0.7-0.6c-0.1,0-0.1-0.1-0.2-0.1c-0.1,0-0.3,0.1-0.3,0.2
		l-2.6,4c-0.1,0.1-0.3,0.2-0.4,0.2c-0.2,0-0.4-0.1-0.5-0.3h0l-2.7-3.6l-0.3-0.5c-0.2-0.5-0.1-1.1,1.5-1.1c-0.5-4.4,1.1-7,2.7-8.4
		L12,8.6L2.8,7.7l0,13.8c0,0.4,0,0.9,0,1.5l0,8.1l5.5-0.6c0.8,0.1,1.6,0,2.3-0.3h0l0,0c2.3-0.7,4-2.8,4.1-5.3
		C14.8,23.3,14.3,21.8,13.3,20.7z"/>
</g>
</svg>
