<?xml version="1.0" encoding="utf-8"?>
<!-- Generator: Adobe Illustrator 24.3.0, SVG Export Plug-In . SVG Version: 6.00 Build 0)  -->
<svg version="1.1" id="Capa_1" xmlns="http://www.w3.org/2000/svg" xmlns:xlink="http://www.w3.org/1999/xlink" x="0px" y="0px"
	 viewBox="0 0 469.9 263.3" style="enable-background:new 0 0 469.9 263.3;" xml:space="preserve">
<style type="text/css">
	.st0{fill:#000F27;}
	.st1{fill:#FFFFFF;}
	.st2{fill:#D99446;}
	.st3{fill:url(#SVGID_1_);}
</style>
<g>
	<g>
		<path class="st0" d="M276.2,165.7h27c0.2-0.2,0.5-0.9,0.9-2.8c0.2-1.4,0.2-2.8,0.2-4.1c0-1.3-0.1-2.7-0.3-3.9
			c-0.3-1.8-0.6-2.5-0.8-2.7h-13.4h-1.6v-1.6v-42.9c-0.6-0.2-2.3-0.7-7.3-0.7c-5,0-6.8,0.5-7.3,0.7v54.5c0,1,0.3,1.9,0.8,2.7
			C274.9,165.4,275.5,165.7,276.2,165.7z"/>
		<path class="st0" d="M328.1,158.4c-2.3,0-4-0.4-5.2-1.3c-1.4-1-2.2-2.7-2.2-5v-1.6h1.6h6.1c10.1,0,14.8-4,14.8-12.7
			c0-3.9-1.4-7.1-4.3-9.8c-2.9-2.7-7.1-4.1-12.5-4.1c-5.5,0-9.8,1.9-13.4,5.9c-3.6,4-5.4,9.3-5.4,15.9c0,6.6,1.9,11.7,5.5,15.4
			c3.7,3.7,8.2,5.5,13.6,5.5c5.5,0,10.1-1,13.5-3l0.1,0l0.1,0c0.2-0.1,0.7-0.4,0.7-1.9c0-1.4-0.6-3.3-1.9-5.6
			C335.8,157.6,332,158.4,328.1,158.4z M320.8,142.4v-2.7c0-2.2,1-3.5,1.8-4.2c1.1-0.9,2.4-1.4,3.9-1.4c3.3,0,5.3,2,5.3,5.4
			c0,2.9-1.7,4.6-4.6,4.6h-4.8h-1.6V142.4z"/>
		<path class="st0" d="M354,129.6c-3.8,3.8-5.7,9.1-5.7,15.8c0,6.8,1.4,11.9,4.3,15.3c2.8,3.3,6.8,4.9,12,4.9c1.4,0,3.4-0.2,5.8-0.7
			l1.9-0.4v2v2.7c0,1.5-0.6,5.1-6.5,5.1c-4.2,0-8.2-0.7-11.9-2.1c-0.6,1.5-1,3.6-1,6.3c0,0.7,0.2,1.6,0.5,2.5
			c4,1.2,8.6,1.8,13.6,1.8c5.2,0,9.5-1.1,12.7-3.2c3.1-2,4.6-4.9,4.6-8.7v-43.2c-4-2.5-9.1-3.8-15.2-3.8
			C362.8,124,357.8,125.8,354,129.6z M372.4,135.7v1.3v16.8v1.3l-1.3,0.3c-0.9,0.2-1.9,0.3-3,0.3c-1.4,0-2.7-0.5-4-1.5
			c-2-1.4-2.9-4.2-2.9-8.6c0-8.7,4.1-10.6,7.6-10.6c0.8,0,1.6,0.1,2.4,0.3L372.4,135.7z"/>
		<path class="st0" d="M428.2,164.5c0.9-1.8,1.4-3.6,1.4-5.4c0-1.8-0.2-3.2-0.7-4.2c-0.4-0.8-0.7-0.8-0.9-0.8h-3h-1.6v-1.6v-14
			c0-4.9-1.1-8.7-3.2-11.1c-2.1-2.4-5.9-3.6-11.2-3.6c-5.6,0-10,0.7-13.1,2c-0.5,0.3-0.6,1.6-0.6,2.1c0,1.4,0.6,3.1,1.7,5.3
			c3.7-0.8,6.5-1.2,8.7-1.2c2.3,0,3.7,0.3,4.6,1.1c0.9,0.8,1.3,2.1,1.3,4.2v0.9v1.6h-1.6H405c-10.6,0-15.6,4.1-15.6,12.8
			c0,3.8,1.3,7,4,9.7c2.6,2.8,5.8,4.1,9.7,4.1c5.2,0,9-1.5,11.4-4.5l1.6-2.1l1.1,2.4c0.4,0.8,0.9,1.4,1.6,2l0,0l0,0
			c1.7,1.5,3.8,2.2,6.6,2.2C426.1,166.6,427.2,166.4,428.2,164.5z M411.5,147.4v6.8v0.7l-0.5,0.5c-1.2,1.2-2.6,1.8-4.1,1.8
			c-1.5,0-2.8-0.5-3.8-1.5c-1-1-1.6-2.4-1.6-4.1c0-3.7,2.1-5.8,5.9-5.8h2.5h1.6V147.4z"/>
		<path class="st0" d="M450.1,165.5v-58.3c-0.8-0.1-2.5-0.3-5.9-0.4c-4.4,0-6.2,0.3-6.9,0.5v58.3c0.8,0.1,2.4,0.2,5.5,0.2
			C447.2,165.8,449.2,165.7,450.1,165.5z"/>
		<path class="st0" d="M268.4,188.4c-2.8-0.3-5.2-0.4-7.1-0.4c-8.1,0-9.7,1-10,1.2l-8,26l-1.4,4.4l-1.5-4.3l-9.2-25.9
			c-0.1-0.1-0.9-0.6-3.5-0.9c-2.8-0.3-5.2-0.4-7.1-0.4c-6.2,0-8,0.6-8.6,0.8l-1.9,53.1c0.2,0.1,0.9,0.5,2.6,0.7
			c1.2,0.2,2.4,0.2,3.7,0.2c1.3,0,2.9-0.1,4.9-0.4c1.1-0.2,1.6-0.4,1.8-0.5l1.1-32.7l0.3-9.1l2.7,8.7l10.3,33.5
			c0.4,0.1,1.6,0.3,4.1,0.3c2.7,0,3.9-0.2,4.3-0.3l9.9-33.1l2.5-8.4l0.5,8.8l1.7,32.7c0.5,0.2,1.9,0.6,5.8,0.6
			c1.6,0,3.4-0.1,5.5-0.4c1-0.1,1.6-0.3,1.9-0.4l-2.3-53.1C270.9,188.9,270.1,188.6,268.4,188.4z"/>
		<path class="st0" d="M314.1,232h-2.8h-1.5v-1.5v-13c0-4.6-1-8.1-3-10.3c-1.9-2.2-5.5-3.3-10.4-3.3c-5.2,0-9.3,0.6-12.2,1.9
			c-0.5,0.3-0.6,1.5-0.6,2c0,1.3,0.5,2.9,1.6,5c3.4-0.7,6.1-1.1,8.1-1.1c2.2,0,3.5,0.3,4.3,1c0.8,0.7,1.2,2,1.2,3.9v0.8v1.5h-1.5
			h-4.5c-9.9,0-14.6,3.8-14.6,11.9c0,3.5,1.2,6.5,3.7,9.1c2.5,2.6,5.4,3.8,9.1,3.8c4.9,0,8.4-1.4,10.6-4.2l1.5-1.9l1,2.2
			c0.3,0.7,0.8,1.3,1.5,1.9l0,0l0,0c1.5,1.4,3.6,2,6.2,2c0.7,0,1.6-0.2,2.6-2c0.8-1.6,1.3-3.3,1.3-5c0-1.7-0.2-3-0.6-3.9
			C314.5,232,314.2,232,314.1,232z M298.7,225.7v6.4v0.6l-0.4,0.4c-1.1,1.1-2.4,1.7-3.8,1.7c-1.4,0-2.6-0.5-3.6-1.4
			c-1-0.9-1.5-2.2-1.5-3.9c0-3.4,2-5.4,5.5-5.4h2.3h1.5V225.7z"/>
		<path class="st0" d="M333.3,187.9c-0.7-0.1-2.2-0.3-5.5-0.5c-3.8,0-5.3,0.3-6,0.4V243c0.7,0.1,2.3,0.3,5.7,0.3
			c3.5,0,5-0.2,5.7-0.3v-17.4v-7.2l0.1,0.2V187.9z"/>
		<path class="st0" d="M344.3,220.6l0.5-0.7l9.6-15.7c-1.2-0.2-3-0.3-5.9-0.3c-4.2,0-5.4,0.4-5.7,0.6l-8.1,15l-1.4,2.5l1.3,3
			l7.9,17.8c0.6,0.1,2.4,0.4,7.3,0.4c1.4,0,3.2-0.1,5.3-0.2c0.3,0,0.6,0,0.9-0.1l-11.4-21.4L344.3,220.6z"/>
		<path class="st0" d="M371.3,228.5h5.7c9.4,0,13.8-3.8,13.8-11.8c0-3.6-1.3-6.6-4-9.1c-2.7-2.5-6.6-3.8-11.7-3.8
			c-5.1,0-9.2,1.8-12.5,5.5c-3.3,3.7-5,8.7-5,14.9c0,6.1,1.7,11,5.2,14.3c3.5,3.5,7.6,5.1,12.7,5.1c5.1,0,9.4-1,12.6-2.8l0.1,0
			l0.1,0c0.2-0.1,0.7-0.3,0.7-1.8c0-1.3-0.6-3.1-1.8-5.2c-3.3,1.5-6.8,2.2-10.4,2.2c-2.1,0-3.7-0.4-4.9-1.2c-1.3-0.9-2-2.5-2-4.7
			v-1.5H371.3z M369.8,221v-2.6c0-2.1,0.9-3.3,1.7-3.9c1-0.9,2.3-1.3,3.7-1.3c3.1,0,4.9,1.8,4.9,5c0,2.7-1.6,4.3-4.3,4.3h-4.5h-1.5
			V221z"/>
		<path class="st0" d="M418.9,203.7c-1.7,0-3.4,0.6-5.1,1.8c-1.7,1.2-3.1,2.8-4.2,4.8l-2.9,5.6v-6.3c0-1.5-0.6-2.8-2-4
			c-1.4-1.3-3.1-1.9-5.2-1.9c-0.9,0-3.8,0-3.8,7.4c0,1.4,0.2,2.5,0.6,3.3c0.4,0.8,0.6,0.8,0.7,0.8h2.2h1.5v1.5V243
			c0.9,0.1,2.6,0.2,6,0.3c3.4,0,5.1-0.1,5.9-0.2v-21.9c0-5.6,2.9-6.5,4.7-6.5c0.9,0,2,0.3,3.1,0.8c0.1,0.1,0.2,0.1,0.3,0.2
			c0.1-0.1,0.1-0.2,0.2-0.4c0.3-0.6,0.8-1.8,1.5-4.4c0.6-2.6,0.7-3.7,0.7-4.2c0-0.9-0.1-1.3-0.2-1.4
			C422.8,204,420.6,203.7,418.9,203.7z"/>
		<path class="st0" d="M453,223.4c-1.2-0.9-2.3-1.7-3.2-2.2c-1-0.5-2.2-1.1-3.7-1.8c-1.7-0.7-2.8-1.4-3.5-1.9
			c-0.9-0.8-1.4-1.8-1.4-2.9c0-1.5,1-3.1,3.8-3.1c2.6,0,5.1,0.6,7.4,1.6c0.3-0.4,0.7-1,1.4-2.1c1.3-2.2,1.6-3.4,1.6-4
			c0-0.5-0.9-1.3-3.3-2c-2.7-0.8-6.1-1.3-10.1-1.3c-3.8,0-7.1,1-9.8,2.9c-2.6,1.9-3.8,4.5-3.8,8.1c0,5.8,3.1,9.8,9.4,12.4l0,0l0,0
			c3.7,1.7,5.2,3,5.2,4.6c0,0.8-0.3,3.3-4,3.3c-2.7,0-6.1-1.2-10.3-3.6c-0.3,0.4-0.7,1.1-1.1,2.1c-0.7,1.5-1,2.9-1,4.3
			c0,0.6,0,2.4,3.8,4c3,1.2,6.4,1.9,10.1,1.9c5.5,0,9.6-1.2,12.2-3.7c2.6-2.4,3.9-5.6,3.9-9.6C456.4,227.5,455.3,225.2,453,223.4z"
			/>
	</g>
	<path class="st1" d="M81.3,158.4"/>
	<path class="st2" d="M127.2,41.1c-0.1-8-4.9-16.2-11.8-20.4c-7.3-4.4-16.5-4.3-23.2-0.1c-6.7,4.2-10.9,12.2-11.2,20.8
		c-0.2,6.1,1.5,12.5,5.2,17.6c3.7,5.1,9.3,8.8,15.2,9.4c6.9,0.7,13.3-2.7,18.2-7.3c3.2-3,5.9-6.6,7.2-10.9
		C127.8,47.4,127.9,44.2,127.2,41.1z"/>
	<linearGradient id="SVGID_1_" gradientUnits="userSpaceOnUse" x1="64.6246" y1="160.5387" x2="213.9076" y2="160.5387">
		<stop  offset="0" style="stop-color:#629E94"/>
		<stop  offset="0.85" style="stop-color:#629E94"/>
	</linearGradient>
	<path class="st3" d="M209.8,123.6L209.8,123.6c-65.6-50.4-101.6-46-101.6-46l0,0c-23.1,0.7-42.3,19-43.5,42.5
		c-0.8,15.4,6.2,29.3,17.5,38c0.5,0.3,1,0.5,1.6,0.5c1,0,2-0.5,2.5-1.3l19.7-30.6c0.8-0.9,2-1.5,3.4-1.5c1.8,0,3.3,1,4.1,2.5h0.1
		L134,155l3.5,5.1c0.3,3.7-2.1,7.1-12.4,7l0,0l0,0c7.3,60.6-39.5,76.4-39.5,76.4c5.5,0.1,23.1,0.4,29.3-0.8c0.3,0,0.6,0,0.8-0.1
		c21.2-2.5,37.2-20,38.8-41l0,0l0-0.1c0.2-2.1,0.2-4.3,0-6.5h0.1v-10.2v-5.3V149c-0.1-0.7-0.1-1.5-0.1-2.3
		c-0.1-22.9,50.4-9.9,50.4-9.9s2.5,0.2,2.7,0.2c0.6-0.2,1.5-0.1,2.1-0.3C215.7,134.8,214.9,127.1,209.8,123.6z"/>
	<path class="st0" d="M93.6,167.4c-0.4-0.7-1-1.4-1.7-1.9c-1.7-1.8-3.5-3.4-5.4-4.9c-0.5-0.3-1-0.5-1.6-0.5c-1,0-2,0.5-2.5,1.3
		l-19.7,30.6c-0.8,0.9-2,1.5-3.4,1.5c-1.8,0-3.3-1-4.1-2.5h-0.1l-20.4-27.3l-2.5-3.7c-1.7-4-0.9-8.5,11.4-8.5
		c-4-33.2,8.3-52.9,20.1-64l19.4-12.4l-69.4-6.8l-0.2,104.7c-0.1,3.1-0.2,7,0,11.5l-0.1,61.1l41.9-4.8c6.2,0.5,12.2-0.2,17.7-2h0
		l0,0c17.2-5.6,30-21.3,31-40.4C104.6,186.8,100.6,175.9,93.6,167.4z"/>
</g>
</svg>
